<svg width="24" height="25" viewBox="0 0 24 25" fill="none" xmlns="http://www.w3.org/2000/svg">
<path d="M11.78 2.22015C11.7114 2.14647 11.6286 2.08736 11.5366 2.04637C11.4446 2.00538 11.3453 1.98334 11.2446 1.98156C11.1439 1.97979 11.0438 1.99831 10.9504 2.03603C10.8571 2.07375 10.7722 2.1299 10.701 2.20112C10.6298 2.27233 10.5736 2.35717 10.5359 2.45056C10.4982 2.54394 10.4797 2.64397 10.4814 2.74468C10.4832 2.84538 10.5053 2.94469 10.5463 3.03669C10.5873 3.12869 10.6464 3.21149 10.72 3.28015L11.94 4.50015C10.1976 4.51186 8.49599 5.02913 7.04182 5.98919C5.58765 6.94924 4.44345 8.31078 3.74812 9.90853C3.05278 11.5063 2.83621 13.2715 3.12469 14.99C3.41318 16.7084 4.19432 18.3062 5.37328 19.5893C6.55225 20.8724 8.07833 21.7857 9.76629 22.2182C11.4542 22.6508 13.2315 22.5841 14.8822 22.0261C16.533 21.4682 17.9863 20.443 19.0657 19.0751C20.1451 17.7072 20.8042 16.0554 20.963 14.3202C20.9719 14.2221 20.9614 14.1232 20.932 14.0292C20.9027 13.9351 20.8551 13.8478 20.792 13.7722C20.7289 13.6965 20.6515 13.6341 20.5643 13.5883C20.477 13.5426 20.3816 13.5145 20.2835 13.5057C20.1854 13.4968 20.0866 13.5073 19.9925 13.5367C19.8985 13.566 19.8112 13.6136 19.7356 13.6767C19.6599 13.7398 19.5975 13.8172 19.5517 13.9044C19.506 13.9917 19.4779 14.0871 19.469 14.1852C19.3364 15.6307 18.7872 17.0066 17.8879 18.1461C16.9887 19.2856 15.7781 20.1397 14.403 20.6047C13.0279 21.0697 11.5474 21.1256 10.1411 20.7658C8.73487 20.4059 7.46324 19.6457 6.48052 18.5774C5.49781 17.5091 4.84623 16.1785 4.60484 14.7471C4.36345 13.3157 4.54262 11.8451 5.12062 10.5135C5.69861 9.18199 6.65059 8.04679 7.86107 7.24564C9.07155 6.4445 10.4885 6.01184 11.94 6.00015L10.72 7.22015C10.5835 7.36167 10.508 7.55116 10.5098 7.7478C10.5116 7.94445 10.5905 8.13253 10.7297 8.27152C10.8688 8.41051 11.0569 8.4893 11.2536 8.49091C11.4502 8.49253 11.6397 8.41684 11.781 8.28015L14.281 5.78015C14.4215 5.63953 14.5004 5.4489 14.5004 5.25015C14.5004 5.0514 14.4215 4.86078 14.281 4.72015L11.781 2.22015H11.78Z" fill="white"/>
<path d="M15.7841 10.7203C15.9245 10.8609 16.0034 11.0516 16.0034 11.2503C16.0034 11.4491 15.9245 11.6397 15.7841 11.7803L11.2801 16.2843C11.1395 16.4248 10.9488 16.5037 10.7501 16.5037C10.5513 16.5037 10.3607 16.4248 10.2201 16.2843L8.22009 14.2843C8.08761 14.1421 8.01549 13.9541 8.01892 13.7598C8.02234 13.5655 8.10106 13.3801 8.23847 13.2427C8.37588 13.1053 8.56127 13.0266 8.75557 13.0231C8.94987 13.0197 9.13792 13.0918 9.28009 13.2243L10.7501 14.6933L14.7231 10.7203C14.8637 10.5799 15.0543 10.501 15.2531 10.501C15.4518 10.501 15.6425 10.5799 15.7831 10.7203H15.7841Z" fill="white"/>
</svg>
