<?xml version="1.0" encoding="UTF-8"?>
<svg xmlns="http://www.w3.org/2000/svg" xmlns:xlink="http://www.w3.org/1999/xlink" width="14px" height="14px" viewBox="0 0 14 14" version="1.1">
<g id="surface1">
<path style=" stroke:none;fill-rule:nonzero;fill:rgb(84.313725%,15.686275%,15.686275%);fill-opacity:1;" d="M 14 7 C 14 8.933594 13.316406 10.582031 11.949219 11.949219 C 10.582031 13.316406 8.933594 14 7 14 C 5.066406 14 3.417969 13.316406 2.050781 11.949219 C 0.683594 10.582031 0 8.933594 0 7 C 0 5.066406 0.683594 3.417969 2.050781 2.050781 C 3.417969 0.683594 5.066406 0 7 0 C 8.933594 0 10.582031 0.683594 11.949219 2.050781 C 13.316406 3.417969 14 5.066406 14 7 C 14 7.082031 14 7.164062 13.996094 7.242188 "/>
<path style=" stroke:none;fill-rule:nonzero;fill:rgb(90.196078%,90.196078%,90.196078%);fill-opacity:1;" d="M 6.34375 10.9375 L 7.65625 10.9375 L 7.65625 9.625 L 6.34375 9.625 Z M 6.34375 2.625 L 6.34375 8.3125 L 7.65625 8.3125 L 7.65625 2.625 Z M 6.34375 2.625 "/>
</g>
</svg>
