<svg width="24" height="24" viewBox="0 0 24 24" fill="none" xmlns="http://www.w3.org/2000/svg">
<path d="M12 0.75C5.787 0.75 0.75 5.787 0.75 12C0.75 18.213 5.787 23.25 12 23.25C18.213 23.25 23.25 18.213 23.25 12C23.25 5.787 18.213 0.75 12 0.75ZM13.875 19.4062H10.125V10.4062H13.875V19.4062ZM12 8.34375C11.5027 8.34375 11.0258 8.14621 10.6742 7.79458C10.3225 7.44294 10.125 6.96603 10.125 6.46875C10.125 5.97147 10.3225 5.49456 10.6742 5.14292C11.0258 4.79129 11.5027 4.59375 12 4.59375C12.4973 4.59375 12.9742 4.79129 13.3258 5.14292C13.6775 5.49456 13.875 5.97147 13.875 6.46875C13.875 6.96603 13.6775 7.44294 13.3258 7.79458C12.9742 8.14621 12.4973 8.34375 12 8.34375Z" fill="white"/>
</svg>
