<?xml version="1.0" encoding="utf-8" ?>
<svg xmlns="http://www.w3.org/2000/svg" xmlns:xlink="http://www.w3.org/1999/xlink" width="13" height="13">
	<defs>
		<clipPath id="clip_0">
			<rect x="-1063" y="-161" width="1440" height="985" clip-rule="evenodd"/>
		</clipPath>
	</defs>
	<g clip-path="url(#clip_0)">
		<path fill="rgb(0,0,0)" stroke="none" transform="matrix(1.19249e-08 1 -1 1.19249e-08 12.0679 0.689201)" d="M10.5 4.5L7.5 4.5L7.5 1.5C7.5 0.671627 6.82837 0 6 0C5.17163 0 4.5 0.671627 4.5 1.5L4.5 4.5L1.5 4.5C0.671627 4.5 0 5.17163 0 6C0 6.82837 0.671627 7.5 1.5 7.5L4.5 7.5L4.5 10.5C4.5 11.3284 5.17163 12 6 12C6.82837 12 7.5 11.3284 7.5 10.5L7.5 7.5L10.5 7.5C11.3284 7.5 12 6.82837 12 6C12 5.17163 11.3284 4.5 10.5 4.5Z"/>
	</g>

</svg>